<svg width="24" height="24" viewBox="0 0 24 24" fill="none" xmlns="http://www.w3.org/2000/svg">
<path d="M11.3926 4.19531C11.7701 3.98557 12.2299 3.98557 12.6074 4.19531L19.6074 8.08398C20.0041 8.30447 20.25 8.7229 20.25 9.17676V19C20.25 19.6904 19.6904 20.25 19 20.25H5C4.30964 20.25 3.75 19.6904 3.75 19V9.17676C3.75002 8.72291 3.99589 8.30447 4.39258 8.08398L11.3926 4.19531Z" stroke="#121212" stroke-width="1.5"/>
<path d="M12.75 13C12.75 12.5858 12.4142 12.25 12 12.25C11.5858 12.25 11.25 12.5858 11.25 13L12 13L12.75 13ZM11.25 20L11.25 20.75L12.75 20.75L12.75 20L12 20L11.25 20ZM12 13L11.25 13L11.25 20L12 20L12.75 20L12.75 13L12 13Z" fill="#121212"/>
</svg>
