<svg width="24" height="24" viewBox="0 0 24 24" fill="none" xmlns="http://www.w3.org/2000/svg">
<g clip-path="url(#clip0_2001_228070)">
<path d="M23.6574 9.95C23.1873 9.48 22.4272 9.48 21.9571 9.95L16.806 15.1L4.10335 2.4H10.3146L9.56449 3.15C9.09439 3.62 9.09439 4.38 9.56449 4.85C10.0346 5.32 10.7947 5.32 11.2648 4.85L14.0654 2.05C14.4055 1.71 14.5155 1.19 14.3255 0.74C14.1354 0.29 13.7054 0 13.2153 0H3.13315C2.32298 0 1.59283 0.48 1.28277 1.23C0.972703 1.98 1.14274 2.84 1.71286 3.41L5.50365 7.2L0.352573 12.35C-0.117524 12.82 -0.117524 13.58 0.352573 14.05C0.582621 14.28 0.892686 14.4 1.20275 14.4C1.51282 14.4 1.81288 14.28 2.05293 14.05L7.204 8.9L19.9066 21.6H13.6954L14.4455 20.85C14.9156 20.38 14.9156 19.62 14.4455 19.15C13.9754 18.68 13.2153 18.68 12.7452 19.15L9.94457 21.95C9.6045 22.29 9.49448 22.81 9.68452 23.26C9.87456 23.71 10.3046 24 10.7947 24H20.8568C21.667 24 22.3972 23.51 22.7072 22.76C23.0173 22.01 22.8473 21.15 22.2771 20.58L18.4964 16.8L23.6474 11.65C24.1175 11.18 24.1175 10.42 23.6474 9.95H23.6574Z" fill="#E0E0E0"/>
</g>
<defs>
<clipPath id="clip0_2001_228070">
<rect width="24" height="24" fill="white"/>
</clipPath>
</defs>
</svg>
