<svg width="47" height="39" viewBox="0 0 47 39" fill="none" xmlns="http://www.w3.org/2000/svg">
<path d="M43.6563 18.2908C43.3304 17.9283 43.1304 17.4694 43.0862 16.9829C43.042 16.4964 43.1561 16.0086 43.4113 15.5928C44.5945 13.6966 45.1219 11.4609 44.9118 9.23261C44.6065 6.65912 43.3626 4.29077 41.4207 2.58545C39.4788 0.880133 36.9768 -0.0410367 34.3983 3.47955e-05H11.0136C10.529 3.47955e-05 10.0643 0.193497 9.72165 0.537862C9.37901 0.882227 9.18651 1.34929 9.18651 1.83629V4.31883C9.18651 4.80584 9.37901 5.2729 9.72165 5.61726C10.0643 5.96163 10.529 6.15509 11.0136 6.15509H17.3523C18.1644 6.15509 18.9433 6.47933 19.5176 7.05647C20.0918 7.63362 20.4144 8.4164 20.4144 9.23261V25.3999C20.4396 27.1738 19.8249 28.897 18.6842 30.2509C17.5434 31.6048 15.9536 32.498 14.2085 32.7654C13.1996 32.8999 12.1738 32.8161 11.1998 32.5199C10.2257 32.2236 9.32591 31.7217 8.56051 31.0476C7.79511 30.3736 7.18181 29.543 6.76167 28.6114C6.34153 27.6799 6.12424 26.6689 6.12435 25.6461V23.379C6.12435 22.892 5.93185 22.4249 5.5892 22.0805C5.24656 21.7362 4.78183 21.5427 4.29726 21.5427H1.82711C1.34253 21.5427 0.877806 21.7362 0.53516 22.0805C0.192514 22.4249 1.72722e-05 22.892 1.72722e-05 23.379V25.2563C-0.0418599 28.7297 1.24108 32.0875 3.58541 34.6401C5.92973 37.1927 9.1575 38.7463 12.6059 38.982C14.4035 39.0725 16.2006 38.7945 17.8879 38.1649C19.5752 37.5353 21.1174 36.5673 22.4207 35.3198C23.724 34.0723 24.7612 32.5714 25.4692 30.9084C26.1771 29.2453 26.541 27.4549 26.5388 25.6461V23.1943C26.5388 22.4842 26.8195 21.8032 27.3191 21.3011C27.8187 20.799 28.4963 20.5169 29.2029 20.5169H34.4902C35.9121 20.4904 37.3005 20.9514 38.4268 21.8241C39.553 22.6968 40.3498 23.9291 40.686 25.3178C40.8882 26.2191 40.886 27.1546 40.6794 28.0549C40.4729 28.9553 40.0673 29.7973 39.4927 30.5186C38.9182 31.2399 38.1894 31.8219 37.3606 32.2215C36.5317 32.6211 35.6239 32.8281 34.7046 32.827H32.163C31.9065 32.828 31.6558 32.9042 31.4419 33.0464C31.2279 33.1885 31.0599 33.3904 30.9585 33.6271C30.4014 34.8551 29.7171 36.0208 28.9171 37.1047C28.787 37.2828 28.7093 37.4941 28.6928 37.7144C28.6763 37.9347 28.7217 38.1552 28.8239 38.3508C28.926 38.5465 29.0807 38.7094 29.2704 38.821C29.4601 38.9326 29.6772 38.9884 29.897 38.982H34.3473C37.4609 39.0281 40.4794 37.9039 42.8113 35.8298C45.1431 33.7557 46.6203 30.8812 46.9532 27.7696C47.1025 26.0451 46.8858 24.3084 46.3175 22.6744C45.7491 21.0404 44.8421 19.5462 43.6563 18.2908ZM34.7046 14.3618H29.2029C28.4963 14.3618 27.8187 14.0797 27.3191 13.5776C26.8195 13.0755 26.5388 12.3945 26.5388 11.6844V9.23261C26.5388 8.4164 26.8614 7.63362 27.4357 7.05647C28.0099 6.47933 28.7888 6.15509 29.6009 6.15509H34.5208C35.5605 6.13154 36.5719 6.49597 37.3599 7.17801C38.1479 7.86004 38.6565 8.81131 38.7874 9.84812C38.8447 10.4204 38.7816 10.9985 38.6022 11.5447C38.4228 12.0909 38.1311 12.5931 37.7461 13.0187C37.3611 13.4444 36.8914 13.7839 36.3674 14.0152C35.8434 14.2466 35.2769 14.3647 34.7046 14.3618Z" fill="black"/>
</svg>
