<svg width="45" height="37" viewBox="0 0 45 37" fill="none" xmlns="http://www.w3.org/2000/svg">
<path d="M40.867 16.9521C40.3459 16.5314 40.2744 15.772 40.6933 15.2487C40.7035 15.2384 40.7137 15.2179 40.7239 15.2076C42.3688 13.2784 43.1453 10.7336 42.849 8.20924C42.5936 5.98248 41.531 3.93017 39.8453 2.45251C39.3242 1.99074 38.7623 1.59054 38.1493 1.25191C36.7088 0.441247 35.0946 0.0102616 33.4395 0H11.4329C10.7586 0 10.2171 0.543862 10.2171 1.22112V2.8835C10.2171 3.56076 10.7586 4.10462 11.4329 4.10462H18.6662C19.6368 4.10462 20.4235 4.8845 20.4337 5.85935C20.4337 5.85935 20.4337 5.86961 20.4337 5.87987V24.3507C20.495 28.7426 17.1848 32.447 12.8223 32.837C11.8517 32.8985 10.8812 32.7959 9.95146 32.5189C9.22608 32.3239 8.54156 32.016 7.90813 31.6158C5.51744 30.1074 4.0769 27.4599 4.08712 24.6277V21.4672C4.08712 20.9438 3.66824 20.5231 3.14719 20.5231H0.940398C0.41935 20.5231 0.00046842 20.9438 0.00046842 21.4672V24.2686C-0.0403981 29.0505 2.59549 33.4527 6.82517 35.6486C8.14312 36.3464 9.59388 36.7877 11.0753 36.9416C17.8183 37.5983 23.8052 32.642 24.4591 25.8796C24.4999 25.4692 24.5204 25.0484 24.5204 24.6277V20.1434C24.5204 19.8458 24.6021 19.5585 24.7553 19.302C25.0516 18.7889 25.5931 18.4708 26.1857 18.4708H33.4701C37.1277 18.4195 40.254 21.0772 40.8057 24.7098C41.1939 27.6036 39.7942 30.446 37.2707 31.8929C36.6373 32.2726 35.9528 32.5496 35.2274 32.7036C34.7268 32.8062 34.2261 32.8472 33.7153 32.837H26.8191C26.5637 32.837 26.3287 32.9704 26.1959 33.1961C25.5931 34.1812 24.8779 35.0945 24.0708 35.9154C23.8256 36.1207 23.795 36.4901 23.9993 36.7364C24.1219 36.8903 24.316 36.9621 24.5204 36.9416H33.4497C35.1559 36.9416 36.8416 36.5722 38.3843 35.8539C39.028 35.5665 39.641 35.2279 40.2233 34.8277C42.8898 32.9909 44.6165 30.0663 44.9434 26.834C45.3214 23.0577 43.7889 19.3533 40.867 16.9521ZM33.7153 14.3662H26.1857C25.8894 14.3662 25.6033 14.2841 25.3479 14.1302C24.8371 13.8326 24.5204 13.2887 24.5204 12.6935V5.87987C24.5204 4.90502 25.2968 4.11488 26.2674 4.10462C26.2674 4.10462 26.2776 4.10462 26.2878 4.10462H33.4906C34.032 4.10462 34.5735 4.18671 35.0946 4.3509C35.7893 4.56639 36.4227 4.91528 36.9846 5.37705C38.0165 6.20824 38.6806 7.40884 38.8236 8.73258C39.0995 11.5545 37.0459 14.0686 34.2364 14.3456C34.0627 14.3662 33.889 14.3662 33.7153 14.3662Z" fill="#404040"/>
</svg>
