<svg width="24" height="24" viewBox="0 0 24 24" fill="none" xmlns="http://www.w3.org/2000/svg">
<path d="M21.7145 10.2917C21.3228 9.9 20.6893 9.9 20.2976 10.2917L16.005 14.5833L5.41946 4H10.5955L9.97041 4.625C9.57866 5.01667 9.57866 5.65 9.97041 6.04167C10.3622 6.43333 10.9956 6.43333 11.3874 6.04167L13.7212 3.70833C14.0046 3.425 14.0963 2.99167 13.9379 2.61667C13.7795 2.24167 13.4211 2 13.0127 2H4.61096C3.93582 2 3.32736 2.4 3.06897 3.025C2.81059 3.65 2.95228 4.36667 3.42738 4.84167L6.58637 8L2.29381 12.2917C1.90206 12.6833 1.90206 13.3167 2.29381 13.7083C2.48552 13.9 2.74391 14 3.00229 14C3.26068 14 3.51073 13.9 3.71077 13.7083L8.00333 9.41667L18.5889 20H13.4128L14.0379 19.375C14.4297 18.9833 14.4297 18.35 14.0379 17.9583C13.6462 17.5667 13.0127 17.5667 12.621 17.9583L10.2871 20.2917C10.0038 20.575 9.91207 21.0083 10.0704 21.3833C10.2288 21.7583 10.5872 22 10.9956 22H19.3807C20.0558 22 20.6643 21.5917 20.9227 20.9667C21.1811 20.3417 21.0394 19.625 20.5643 19.15L17.4136 16L21.7062 11.7083C22.0979 11.3167 22.0979 10.6833 21.7062 10.2917H21.7145Z" fill="#B8860B"/>
</svg>
