<svg width="32" height="32" viewBox="0 0 32 32" fill="none" xmlns="http://www.w3.org/2000/svg">
<path d="M14.3084 0C14.5656 -0.000141036 14.8224 0.0258595 15.074 0.078125C15.9044 0.265948 16.6442 0.728012 17.1717 1.38672C17.6992 2.04553 17.9827 2.86227 17.9744 3.70117V9.94043H17.9988C18.2555 9.94032 18.5114 9.9673 18.7625 10.0195C19.534 10.1852 20.2283 10.5967 20.7381 11.1904C21.0435 11.1105 21.3587 11.07 21.6746 11.0703C21.9312 11.0703 22.1872 11.0963 22.4383 11.1484C23.2648 11.3245 24.002 11.7814 24.5213 12.4385C24.7876 12.3777 25.0604 12.3475 25.3338 12.3477C25.4562 12.3477 25.5803 12.3535 25.7049 12.3652C26.6252 12.4731 27.472 12.9136 28.0809 13.6016C28.6897 14.2895 29.0172 15.1755 28.9998 16.0879V22.1357C28.9998 25.6717 28.6959 28.0498 27.1375 29.7266C25.3175 31.6912 22.22 31.9668 19.1326 31.9668L17.5291 32H17.411C16.1539 31.998 14.9108 31.7369 13.7625 31.2334C12.6143 30.73 11.5855 29.9956 10.743 29.0771L3.82697 21.542C3.28856 20.9892 2.99138 20.2503 2.99982 19.4844C3.00075 19.0921 3.08069 18.7034 3.23518 18.3418C3.38968 17.9803 3.6161 17.6529 3.90022 17.3779C4.28681 16.9938 4.74758 16.6891 5.25471 16.4814C5.76168 16.2739 6.30527 16.167 6.85432 16.168C8.25731 16.2318 9.59458 16.773 10.6375 17.6992V3.64355C10.6369 3.16556 10.7324 2.69175 10.9178 2.25C11.1032 1.80831 11.3754 1.40641 11.7186 1.06836C12.0562 0.729585 12.4595 0.460803 12.9041 0.277344C13.3489 0.0938632 13.8262 -0.000606221 14.3084 0ZM14.3084 1.8125C13.8175 1.81504 13.3478 2.00959 13.0018 2.35254C12.6558 2.69562 12.4618 3.16006 12.4627 3.64355V20.2549C12.4633 20.3506 12.4439 20.4456 12.4071 20.5342C12.3701 20.6228 12.3156 20.7037 12.2469 20.7715C12.1782 20.8392 12.0965 20.8932 12.0067 20.9297C11.9169 20.9661 11.8206 20.9847 11.7235 20.9844C11.6279 20.9842 11.533 20.9645 11.4451 20.9277C11.3572 20.8909 11.2772 20.8372 11.2108 20.7695L10.1092 19.6748C9.29053 18.716 8.1248 18.1082 6.8592 17.9805C6.54605 17.9796 6.23581 18.0408 5.94709 18.1602C5.65819 18.2797 5.39621 18.4557 5.17756 18.6768C5.06733 18.781 4.97895 18.906 4.91779 19.0439C4.85673 19.1818 4.82383 19.3301 4.82111 19.4805C4.8184 19.6308 4.84613 19.7801 4.90217 19.9199C4.9583 20.0599 5.04189 20.1879 5.14826 20.2959L12.0906 27.8496C12.762 28.5829 13.582 29.1695 14.4979 29.5713C15.414 29.9731 16.4061 30.1817 17.409 30.1826H17.4998L19.1072 30.1484C26.1823 30.1484 27.1707 28.4079 27.1707 22.1328V16.085C27.1817 15.621 27.0186 15.1693 26.7137 14.8154C26.4089 14.4616 25.983 14.2301 25.5164 14.165C25.4547 14.1554 25.3907 14.1553 25.3289 14.1553C24.8803 14.1591 24.4486 14.3238 24.1141 14.6182C23.7795 14.9125 23.5647 15.3164 23.5106 15.7549V14.7725C23.5188 14.3486 23.3804 13.9347 23.118 13.5986C22.8554 13.2625 22.4846 13.0238 22.0662 12.9229C21.796 12.8652 21.5158 12.8682 21.2469 12.9316C20.9779 12.9951 20.727 13.1181 20.5125 13.29C20.2981 13.462 20.1252 13.6793 20.0076 13.9258C19.8902 14.1722 19.8312 14.4417 19.8338 14.7139V13.6436C19.8418 13.2187 19.7021 12.8031 19.4383 12.4668C19.1746 12.1307 18.8019 11.8937 18.3826 11.7939C18.1125 11.7369 17.8319 11.74 17.5633 11.8037C17.2948 11.8674 17.044 11.9893 16.8299 12.1611C16.6157 12.333 16.4435 12.5507 16.326 12.7969C16.2085 13.043 16.1489 13.312 16.1512 13.584V3.70215C16.1588 3.27744 16.0194 2.86253 15.7557 2.52637C15.4919 2.19019 15.1194 1.9525 14.7 1.85254C14.5713 1.8257 14.44 1.81224 14.3084 1.8125Z" fill="white"/>
</svg>
