<svg width="24" height="24" viewBox="0 0 24 24" fill="none" xmlns="http://www.w3.org/2000/svg">
<path d="M12 0.5C12.5523 0.5 13 0.947715 13 1.5V3.375C13 3.92728 12.5523 4.375 12 4.375C11.4477 4.375 11 3.92728 11 3.375V1.5C11 0.947715 11.4477 0.5 12 0.5Z" fill="#121212"/>
<path fill-rule="evenodd" clip-rule="evenodd" d="M5.375 12C5.375 8.34111 8.34111 5.375 12 5.375C15.6589 5.375 18.625 8.34111 18.625 12C18.625 15.6589 15.6589 18.625 12 18.625C8.34111 18.625 5.375 15.6589 5.375 12ZM12 7.375C9.44568 7.375 7.375 9.44568 7.375 12C7.375 14.5543 9.44568 16.625 12 16.625C14.5543 16.625 16.625 14.5543 16.625 12C16.625 9.44568 14.5543 7.375 12 7.375Z" fill="#121212"/>
<path d="M5.28249 3.86827C4.89196 3.47775 4.2588 3.47775 3.86827 3.86827C3.47775 4.2588 3.47775 4.89196 3.86827 5.28249L5.1941 6.60831C5.58462 6.99884 6.21779 6.99884 6.60831 6.60831C6.99884 6.21779 6.99884 5.58462 6.60831 5.1941L5.28249 3.86827Z" fill="#121212"/>
<path d="M0.5 12C0.5 11.4477 0.947715 11 1.5 11H3.375C3.92728 11 4.375 11.4477 4.375 12C4.375 12.5523 3.92728 13 3.375 13H1.5C0.947715 13 0.5 12.5523 0.5 12Z" fill="#121212"/>
<path d="M6.60831 18.8059C6.99884 18.4154 6.99884 17.7822 6.60831 17.3917C6.21779 17.0012 5.58462 17.0012 5.1941 17.3917L3.86827 18.7175C3.47775 19.1081 3.47775 19.7412 3.86827 20.1318C4.2588 20.5223 4.89196 20.5223 5.28249 20.1317L6.60831 18.8059Z" fill="#121212"/>
<path d="M12 19.625C12.5523 19.625 13 20.0727 13 20.625V22.5C13 23.0523 12.5523 23.5 12 23.5C11.4477 23.5 11 23.0523 11 22.5V20.625C11 20.0727 11.4477 19.625 12 19.625Z" fill="#121212"/>
<path d="M18.8059 17.3917C18.4154 17.0012 17.7822 17.0012 17.3917 17.3917C17.0012 17.7822 17.0012 18.4154 17.3917 18.8059L18.7175 20.1318C19.108 20.5223 19.7412 20.5223 20.1317 20.1318C20.5223 19.7412 20.5223 19.1081 20.1317 18.7175L18.8059 17.3917Z" fill="#121212"/>
<path d="M19.625 12C19.625 11.4477 20.0727 11 20.625 11H22.5C23.0523 11 23.5 11.4477 23.5 12C23.5 12.5523 23.0523 13 22.5 13H20.625C20.0727 13 19.625 12.5523 19.625 12Z" fill="#121212"/>
<path d="M20.1317 5.28249C20.5223 4.89196 20.5223 4.2588 20.1317 3.86827C19.7412 3.47775 19.108 3.47775 18.7175 3.86827L17.3917 5.1941C17.0012 5.58462 17.0012 6.21779 17.3917 6.60831C17.7822 6.99884 18.4154 6.99884 18.8059 6.60831L20.1317 5.28249Z" fill="#121212"/>
</svg>
